<svg xmlns="http://www.w3.org/2000/svg" viewBox="0 0 24 24" width="24" height="24">
  <path fill="#000000" fill-rule="evenodd" d="M 2.781 20.688 c -0.281 -0.469 1.034 -1.958 1.593 -2.988 c 0.722 -0.881 1.561 -2.195 2.284 -3.076 c 1.792 -2.065 3.591 -3.955 5.781 -5.587 c 1.386 -1.032 3.933 -2.34 3.933 -2.34 c 0.011 -0.222 -0.979 0.063 -1.195 0.149 c -0.431 0.332 -1.361 0.314 -1.792 0.647 c -0.843 0.417 -1.385 0.551 -2.19 0.996 c -1.652 0.911 -2.043 1.084 -3.386 2.308 c -0.348 0.274 -0.696 0.802 -1.045 1.077 c -0.291 0.554 -0.583 0.856 -0.874 1.41 c -0.548 0.873 -1.117 1.975 -1.117 1.975 c 0.043 -8.857 10.337 -10.561 16.728 -12.147 c 0 0 -0.09 1.752 -0.398 2.539 c -0.297 0.881 -0.947 1.757 -1.244 2.638 c -0.573 1.061 -0.871 1.279 -1.444 2.34 c -0.268 0.548 -0.913 1.04 -1.444 1.693 c -0.179 0.186 -2.153 0.233 -3.385 0.249 c 0.383 0.687 1.368 1.016 2.24 1.095 c -0.102 0.093 -0.511 0.471 -0.959 0.882 c -0.278 0.255 -2.712 -0.309 -3.919 -0.584 a 4.537 4.537 0 0 0 2.539 1.792 c -1.156 0.948 -3.129 1.551 -4.779 1.543 a 11.967 11.967 0 0 1 -2.34 -0.349 s -1.992 3.522 -2.34 3.684 c -0.156 0.006 -0.541 0.243 -0.697 0.249 C 3.22 20.758 2.889 20.817 2.781 20.688 Z"/>
</svg>
