<svg xmlns="http://www.w3.org/2000/svg" viewBox="0 0 24 24" width="24" height="24">
  <path fill="#000000" d="M 8.8,4.5 C 10.0,4.4 10.8,5.4 10.6,6.6 C 10.4,7.7 9.3,8.4 8.2,8.1 C 7.1,7.8 6.7,6.6 7.1,5.6 C 7.5,4.6 8.0,4.5 8.8,4.5 Z M 15.2,4.5 C 16.4,4.7 17.0,5.7 16.8,6.8 C 16.5,7.9 15.4,8.4 14.3,8.1 C 13.2,7.8 12.8,6.6 13.2,5.6 C 13.6,4.6 14.3,4.4 15.2,4.5 Z M 8.9,10.3 C 10.2,10.4 10.9,11.4 10.7,12.6 C 10.5,13.7 9.4,14.3 8.3,14.0 C 7.1,13.7 6.8,12.5 7.2,11.4 C 7.6,10.4 8.1,10.2 8.9,10.3 Z M 15.0,10.3 C 16.2,10.4 16.9,11.4 16.8,12.5 C 16.6,13.6 15.5,14.2 14.4,14.0 C 13.2,13.7 12.8,12.6 13.2,11.5 C 13.6,10.5 14.2,10.3 15.0,10.3 Z M 8.8,16.1 C 10.0,16.0 10.8,17.0 10.6,18.2 C 10.4,19.3 9.3,19.8 8.2,19.5 C 7.0,19.2 6.7,18.0 7.1,17.0 C 7.5,16.0 8.0,16.0 8.8,16.1 Z M 15.1,16.0 C 16.3,16.2 17.0,17.2 16.7,18.3 C 16.5,19.4 15.4,19.9 14.3,19.6 C 13.1,19.3 12.8,18.1 13.1,17.1 C 13.5,16.0 14.3,15.9 15.1,16.0 Z"/>
</svg>
